<svg xmlns="http://www.w3.org/2000/svg" width="20" height="14">
    <path fill="#FFF" fill-rule="evenodd" d="M17.502 1.791C15.086-.003 12.788.047 12.788.047l-.235.267c2.852.863 4.177 2.108 4.177 2.108-1.744-.947-3.456-1.411-5.05-1.594C10.472.695 9.315.729 8.291.861c-.1 0-.184.017-.285.033-.587.05-2.013.266-3.808 1.047-.621.282-.99.481-.99.481S4.6 1.111 7.62.246L7.453.047s-2.299-.05-4.715 1.744c0 0-2.416 4.334-2.416 9.681 0 0 1.41 2.409 5.117 2.524 0 0 .621-.746 1.124-1.377-2.13-.631-2.936-1.959-2.936-1.959s.168.115.47.281c.017.017.034.033.067.05.051.033.101.049.151.083.42.232.839.415 1.225.565.688.266 1.51.531 2.466.714 1.259.232 2.735.315 4.346.016.788-.133 1.593-.365 2.432-.714.587-.215 1.242-.531 1.93-.98 0 0-.839 1.362-3.037 1.976.503.631 1.107 1.345 1.107 1.345 3.708-.115 5.134-2.524 5.134-2.524 0-5.347-2.416-9.681-2.416-9.681zm-4.396 8.138c-.939 0-1.711-.831-1.711-1.844 0-1.013.755-1.844 1.711-1.844.957 0 1.712.831 1.712 1.844 0 1.013-.755 1.844-1.712 1.844zm-6.123 0c-.94 0-1.712-.831-1.712-1.844 0-1.013.755-1.844 1.712-1.844.956 0 1.728.831 1.711 1.844 0 1.013-.755 1.844-1.711 1.844z"/>
</svg>
