<svg xmlns="http://www.w3.org/2000/svg" xmlns:xlink="http://www.w3.org/1999/xlink" width="36.46" height="44.579" viewBox="0 0 36.46 44.579">
  <defs>
    <linearGradient id="linear-gradient" x1="0.25" y1="0.933" x2="0.75" y2="0.067" gradientUnits="objectBoundingBox">
      <stop offset="0" stop-color="#6e8bff"/>
      <stop offset="0.149" stop-color="#7288fe"/>
      <stop offset="0.318" stop-color="#8081fe"/>
      <stop offset="0.497" stop-color="#9776fe"/>
      <stop offset="0.684" stop-color="#b766fd"/>
      <stop offset="0.873" stop-color="#df52fd"/>
      <stop offset="1" stop-color="#ff43fd"/>
    </linearGradient>
  </defs>
  <path id="Path_791" data-name="Path 791" d="M1396.46,1892.189a13.979,13.979,0,1,1,13.979-13.979A13.995,13.995,0,0,1,1396.46,1892.189Zm0-25.958a11.979,11.979,0,1,0,11.979,11.979A11.992,11.992,0,0,0,1396.46,1866.231Zm3.608,14.753a4.112,4.112,0,0,0-3.78-4.094,1.053,1.053,0,0,0-.161-.012,2.107,2.107,0,1,1,1.994-2.787,1,1,0,0,0,1.893-.645,4.106,4.106,0,1,0-4.213,5.419,1.052,1.052,0,0,0,.161.013,2.106,2.106,0,1,1-1.995,2.786,1,1,0,0,0-1.893.645,4.107,4.107,0,0,0,7.994-1.325Zm-2.941-9.319v-2.016a1,1,0,0,0-2,0v2.016a1,1,0,0,0,2,0Zm0,14.643v-2.016a1,1,0,0,0-2,0v2.016a1,1,0,0,0,2,0Z" transform="translate(-1378.23 -1847.61)" fill="url(#linear-gradient)"/>
  <g id="Group_855" data-name="Group 855" transform="translate(-1378.23 -1847.61)">
    <g id="Group_852" data-name="Group 852">
      <line id="Line_33" data-name="Line 33" y2="10.246" transform="translate(1396.46 1850.257)" fill="none" stroke="#fff" stroke-linecap="round" stroke-linejoin="round" stroke-width="2"/>
      <path id="Path_792" data-name="Path 792" d="M1391.676,1853.347l4.784-4.737,4.784,4.737" fill="none" stroke="#fff" stroke-linecap="round" stroke-linejoin="round" stroke-width="2"/>
    </g>
    <g id="Group_853" data-name="Group 853">
      <line id="Line_34" data-name="Line 34" x1="5.44" y2="5.44" transform="translate(1407.346 1855.064)" fill="none" stroke="#fff" stroke-linecap="round" stroke-linejoin="round" stroke-width="2"/>
      <path id="Path_793" data-name="Path 793" d="M1408.605,1854.164l5.055.025.025,5.055" fill="none" stroke="#fff" stroke-linecap="round" stroke-linejoin="round" stroke-width="2"/>
    </g>
    <g id="Group_854" data-name="Group 854">
      <line id="Line_35" data-name="Line 35" x1="5.44" y1="5.44" transform="translate(1380.134 1855.064)" fill="none" stroke="#fff" stroke-linecap="round" stroke-linejoin="round" stroke-width="2"/>
      <path id="Path_794" data-name="Path 794" d="M1379.235,1859.244l.025-5.055,5.055-.025" fill="none" stroke="#fff" stroke-linecap="round" stroke-linejoin="round" stroke-width="2"/>
    </g>
  </g>
</svg>
