<svg xmlns="http://www.w3.org/2000/svg" xmlns:xlink="http://www.w3.org/1999/xlink" width="35.539" height="50.872" viewBox="0 0 35.539 50.872">
  <defs>
    <linearGradient id="linear-gradient" x1="1.114" y1="0.787" x2="-0.118" y2="0.2" gradientUnits="objectBoundingBox">
      <stop offset="0" stop-color="#6e8bff"/>
      <stop offset="0.149" stop-color="#7288fe"/>
      <stop offset="0.318" stop-color="#8081fe"/>
      <stop offset="0.497" stop-color="#9776fe"/>
      <stop offset="0.684" stop-color="#b766fd"/>
      <stop offset="0.873" stop-color="#df52fd"/>
      <stop offset="1" stop-color="#ff43fd"/>
    </linearGradient>
  </defs>
  <path id="Path_778" data-name="Path 778" d="M1388.63,1706.411a1.617,1.617,0,0,1-1.617-1.618v-20.607a1,1,0,0,1,2,0v20.036l7.193-2.967a1.008,1.008,0,0,1,.763,0l7.193,2.968v-20.037a1,1,0,0,1,2,0v20.607a1.618,1.618,0,0,1-2.236,1.5l-7.339-3.027-7.339,3.027A1.621,1.621,0,0,1,1388.63,1706.411Z" transform="translate(-1378.818 -1655.539)" fill="url(#linear-gradient)"/>
  <path id="Path_779" data-name="Path 779" d="M1409.365,1668.369c-.495-1.523,1.712-4.438.789-5.706s-4.392-.077-5.673-1.009-1.187-4.59-2.711-5.085c-1.469-.477-3.554,2.521-5.183,2.521s-3.713-3-5.183-2.521c-1.523.495-1.443,4.162-2.711,5.085s-4.741-.272-5.673,1.009,1.284,4.183.79,5.706c-.478,1.47-3.992,2.524-3.992,4.153s3.514,2.682,3.992,4.152c.494,1.523-1.713,4.438-.79,5.706s4.393.077,5.673,1.009,1.188,4.591,2.711,5.085c1.47.477,3.554-2.521,5.183-2.521s3.714,3,5.183,2.521c1.524-.494,1.443-4.162,2.711-5.084s4.741.271,5.673-1.01-1.284-4.183-.789-5.706c.477-1.47,3.992-2.523,3.992-4.152S1409.842,1669.839,1409.365,1668.369Z" transform="translate(-1378.818 -1655.539)" fill="none" stroke="#fff" stroke-linecap="round" stroke-linejoin="round" stroke-width="2"/>
</svg>
