<svg xmlns="http://www.w3.org/2000/svg" xmlns:xlink="http://www.w3.org/1999/xlink" width="199.018" height="39.835" viewBox="0 0 199.018 39.835">
  <defs>
    <linearGradient id="linear-gradient" x1="0.025" y1="0.004" x2="0.936" y2="0.955" gradientUnits="objectBoundingBox">
      <stop offset="0" stop-color="#ff0084"/>
      <stop offset="1" stop-color="#f57300"/>
    </linearGradient>
    <linearGradient id="linear-gradient-2" x1="0.5" y1="1.065" x2="0.5" y2="0.107" gradientUnits="objectBoundingBox">
      <stop offset="0" stop-color="#7e0000"/>
      <stop offset="1" stop-color="#ff0084" stop-opacity="0"/>
    </linearGradient>
    <linearGradient id="linear-gradient-3" x1="0.5" y1="-0.015" x2="0.5" y2="0.835" xlink:href="#linear-gradient-2"/>
    <linearGradient id="linear-gradient-4" x1="0.025" y1="0.004" x2="0.936" y2="0.955" gradientUnits="objectBoundingBox">
      <stop offset="0" stop-color="#6e8bff"/>
      <stop offset="1" stop-color="#ff43fd"/>
    </linearGradient>
  </defs>
  <g id="Group_7" data-name="Group 7" transform="translate(-62.974 -42.111)">
    <path id="Path_6" data-name="Path 6" d="M100.011,42.134l-.052.045-1.4,1.269a19.679,19.679,0,0,0-6.485,14.6v.005H70.941v0a19.687,19.687,0,0,0-6.485-14.6l-.083-.073L64,43.043v.005l-1.03-.914V81.946l.405-.363,1.074-.971A19.685,19.685,0,0,0,70.941,66H92.07a19.684,19.684,0,0,0,6.491,14.608l1.074.971.4.363V42.111Zm-28.473,0,.052.045A18.077,18.077,0,0,1,75.82,47.6c.119.234.231.467.34.706a18.083,18.083,0,0,1,1.619,7.471v2.274h7.2V56.016a18.05,18.05,0,0,1,6.184-13.6l.275-.238.05-.045ZM91.7,81.583l-.171-.143a18,18,0,0,1-6.558-13.9V66h-7.2v2.019a18.03,18.03,0,0,1-6.15,13.56l-.418.363H92.146Z" fill="url(#linear-gradient)"/>
    <path id="Path_7" data-name="Path 7" d="M86.971,47.768a18.024,18.024,0,0,0-2,8.248v2.037h-7.2V55.779a18.083,18.083,0,0,0-1.619-7.471c-.109-.239-.221-.472-.34-.706Z" opacity="0.4" fill="url(#linear-gradient-2)"/>
    <path id="Path_8" data-name="Path 8" d="M87.121,76.068l-11.291.106a18.019,18.019,0,0,0,1.949-8.151V66h7.2v1.531A18.042,18.042,0,0,0,87.121,76.068Z" opacity="0.4" fill="url(#linear-gradient-3)"/>
    <path id="Path_9" data-name="Path 9" d="M100,42.158l-.051.044-1.4,1.268a19.667,19.667,0,0,0-6.481,14.592v.005H70.947v0a19.675,19.675,0,0,0-6.481-14.6l-.083-.073-.368-.329v0l-1.03-.913V81.946l.4-.363,1.073-.97a19.664,19.664,0,0,0,6.484-14.6H92.064a19.675,19.675,0,0,0,6.487,14.6l1.073.97.4.363V42.134Z" fill="url(#linear-gradient-4)"/>
    <g id="Group_6" data-name="Group 6">
      <g id="Group_5" data-name="Group 5">
        <path id="Path_10" data-name="Path 10" d="M125.3,54.171V59.64h-7.6V54.171a2.221,2.221,0,0,0-2.221-2.221h-2.306v20.1h2.3a2.227,2.227,0,0,0,2.227-2.227v-6.3h7.6v6.305a2.218,2.218,0,0,0,2.217,2.221h2.3V51.95h-2.3A2.218,2.218,0,0,0,125.3,54.171Z" fill="#fff"/>
        <path id="Path_11" data-name="Path 11" d="M145.817,58.372a6.748,6.748,0,0,0-5.135-1.98,7.288,7.288,0,0,0-2.707.519,6.805,6.805,0,0,0-2.336,1.536A7.589,7.589,0,0,0,134,60.985a9.174,9.174,0,0,0-.628,3.553,10.016,10.016,0,0,0,.478,3.132,6.636,6.636,0,0,0,1.479,2.507,6.99,6.99,0,0,0,2.525,1.666,9.638,9.638,0,0,0,3.584.61,14.66,14.66,0,0,0,1.619-.086c.548-.059,1.046-.132,1.526-.22a11.116,11.116,0,0,0,1.287-.3,6.14,6.14,0,0,0,.927-.345l-.576-3.514a8.577,8.577,0,0,1-1.874.537,12.234,12.234,0,0,1-2.336.221,5,5,0,0,1-2.955-.784,2.873,2.873,0,0,1-1.246-2.115h9.8c.018-.231.037-.5.055-.8s.031-.574.031-.825A8.2,8.2,0,0,0,145.817,58.372Zm-8,4.51a6.624,6.624,0,0,1,.278-1.087,2.958,2.958,0,0,1,.532-.942,2.542,2.542,0,0,1,.872-.649,2.87,2.87,0,0,1,1.248-.249,2.738,2.738,0,0,1,1.261.262,2.675,2.675,0,0,1,.841.667,2.565,2.565,0,0,1,.49.929,4.652,4.652,0,0,1,.2,1.069Z" fill="#fff"/>
        <path id="Path_12" data-name="Path 12" d="M163.145,50.4a1.816,1.816,0,0,0-1.812,1.814v4.928a9.248,9.248,0,0,0-1.437-.49,6.745,6.745,0,0,0-1.612-.171,7.108,7.108,0,0,0-2.883.55,5.661,5.661,0,0,0-2.131,1.591,7.2,7.2,0,0,0-1.333,2.538,11.217,11.217,0,0,0-.468,3.35,9.649,9.649,0,0,0,.538,3.293,6.879,6.879,0,0,0,1.551,2.491,6.732,6.732,0,0,0,2.494,1.581,9.588,9.588,0,0,0,3.364.555c.524,0,1.071-.029,1.637-.075s1.137-.112,1.687-.19,1.077-.168,1.578-.272.944-.218,1.331-.338V50.4Zm-1.812,18.2c-.215.039-.487.072-.817.1s-.685.044-1.072.044a3.088,3.088,0,0,1-2.665-1.22,5.268,5.268,0,0,1-.9-3.218q0-4.173,3.078-4.173a5.189,5.189,0,0,1,1.318.172,3.766,3.766,0,0,1,1.061.438Z" fill="#fff"/>
        <path id="Path_13" data-name="Path 13" d="M181.8,56.981c-.493-.1-1.012-.195-1.547-.272s-1.093-.143-1.645-.192-1.085-.073-1.6-.073a9.555,9.555,0,0,0-3.286.537A6.906,6.906,0,0,0,171.27,58.5a6.5,6.5,0,0,0-1.523,2.362,8.655,8.655,0,0,0-.522,3.062,7.52,7.52,0,0,0,1.684,5.232,6.155,6.155,0,0,0,4.84,1.873,7.763,7.763,0,0,0,1.609-.158,6.873,6.873,0,0,0,1.438-.483v.556a2.925,2.925,0,0,1-.768,2.084,3.523,3.523,0,0,1-2.627.815A11.984,11.984,0,0,1,170.8,73v3.851a17.922,17.922,0,0,0,1.755.4,16.066,16.066,0,0,0,2.784.246q3.971,0,5.876-1.814t1.9-5.553V57.318C182.73,57.2,182.294,57.09,181.8,56.981Zm-3,9.991a4.681,4.681,0,0,1-.986.4,4.289,4.289,0,0,1-1.249.176q-2.927,0-2.929-3.625a4.713,4.713,0,0,1,.84-2.873,2.984,2.984,0,0,1,2.557-1.131,9.432,9.432,0,0,1,1.012.047c.29.028.542.064.755.1Z" fill="#fff"/>
        <path id="Path_14" data-name="Path 14" d="M199.128,58.372a6.732,6.732,0,0,0-5.13-1.98,7.3,7.3,0,0,0-2.712.519,6.765,6.765,0,0,0-2.333,1.536,7.549,7.549,0,0,0-1.638,2.538,9.29,9.29,0,0,0-.622,3.553,10.045,10.045,0,0,0,.477,3.132,6.572,6.572,0,0,0,1.479,2.507,6.918,6.918,0,0,0,2.518,1.666,9.675,9.675,0,0,0,3.586.61,14.755,14.755,0,0,0,1.625-.086q.809-.088,1.518-.22a11.164,11.164,0,0,0,1.292-.3,6.449,6.449,0,0,0,.932-.345l-.587-3.514a8.3,8.3,0,0,1-1.868.537,12.257,12.257,0,0,1-2.333.221,4.978,4.978,0,0,1-2.956-.784,2.843,2.843,0,0,1-1.246-2.115h9.8c.021-.231.039-.5.057-.8s.028-.574.028-.825A8.194,8.194,0,0,0,199.128,58.372Zm-8,4.51a6.59,6.59,0,0,1,.27-1.087,3.11,3.11,0,0,1,.537-.942,2.581,2.581,0,0,1,.872-.649,2.87,2.87,0,0,1,1.246-.249,2.732,2.732,0,0,1,1.261.262,2.6,2.6,0,0,1,.844.667,2.628,2.628,0,0,1,.49.929,4.49,4.49,0,0,1,.189,1.069Z" fill="#fff"/>
        <path id="Path_15" data-name="Path 15" d="M217.507,53.3a12.53,12.53,0,0,0-6.9-1.586c-.835,0-1.8.042-2.9.12a25.384,25.384,0,0,0-3.135.4V72.048h3.169a1.356,1.356,0,0,0,1.357-1.357V65.319h1.42a12.614,12.614,0,0,0,6.96-1.609q2.44-1.611,2.436-5.232C219.912,56.081,219.111,54.352,217.507,53.3Zm-3.452,7.523a7.76,7.76,0,0,1-3.539.633H209.1v-5.8c.234-.021.506-.039.825-.06s.644-.029.974-.029a11.568,11.568,0,0,1,1.8.133,3.9,3.9,0,0,1,1.372.464,2.351,2.351,0,0,1,.872.883,2.811,2.811,0,0,1,.3,1.393A2.463,2.463,0,0,1,214.055,60.827Z" fill="#fff"/>
        <path id="Path_16" data-name="Path 16" d="M229.9,68.767a3.762,3.762,0,0,1-1.246-.257,1.816,1.816,0,0,1-.711-.525,1.786,1.786,0,0,1-.334-.782,6.111,6.111,0,0,1-.089-1.04V50.4h-2.6a1.72,1.72,0,0,0-1.721,1.721V67.031a8.8,8.8,0,0,0,.249,2.187,3.439,3.439,0,0,0,.926,1.656,4.487,4.487,0,0,0,1.856,1.055,10.71,10.71,0,0,0,3.054.4h.489l.166-3.519-.063.062Z" fill="#fff"/>
        <path id="Path_17" data-name="Path 17" d="M241.912,58.318v10.25c-.27.037-.577.074-.924.1s-.681.046-.99.046a2.19,2.19,0,0,1-2.058-.929,6.176,6.176,0,0,1-.549-3.015V58.318a1.521,1.521,0,0,0-1.522-1.522h-2.8v8.493a12.011,12.011,0,0,0,.316,2.874,5.683,5.683,0,0,0,1.074,2.248,4.841,4.841,0,0,0,2.042,1.46,8.64,8.64,0,0,0,3.233.525,23.664,23.664,0,0,0,3.653-.273,24.538,24.538,0,0,0,2.843-.6V56.8h-2.8A1.521,1.521,0,0,0,241.912,58.318Z" fill="#fff"/>
        <path id="Path_18" data-name="Path 18" d="M261.771,66.2a3.469,3.469,0,0,0-.748-1.316,5.687,5.687,0,0,0-1.466-1.1,17.6,17.6,0,0,0-2.35-1.036c-.466-.178-.849-.338-1.144-.485a4.72,4.72,0,0,1-.715-.408,1,1,0,0,1-.346-.393,1.155,1.155,0,0,1-.086-.463c0-.754.681-1.131,2.03-1.131a8.8,8.8,0,0,1,1.988.2,16.027,16.027,0,0,1,1.638.463l.754-3.361a12.032,12.032,0,0,0-2.03-.537,13.933,13.933,0,0,0-2.665-.245,6.968,6.968,0,0,0-4.386,1.245,4.076,4.076,0,0,0-1.592,3.389,4.971,4.971,0,0,0,.319,1.889,3.865,3.865,0,0,0,.9,1.347,5.31,5.31,0,0,0,1.4.972c.555.27,1.169.534,1.837.782a12.128,12.128,0,0,1,1.948.883,1.117,1.117,0,0,1,.641.914.905.905,0,0,1-.5.9,4.349,4.349,0,0,1-1.681.23,10.786,10.786,0,0,1-2.294-.248,14.813,14.813,0,0,1-2.26-.678l-.724,3.506a13.787,13.787,0,0,0,1.871.582,14.024,14.024,0,0,0,3.38.347,8.468,8.468,0,0,0,4.794-1.156,3.867,3.867,0,0,0,1.7-3.417A5.673,5.673,0,0,0,261.771,66.2Z" fill="#fff"/>
      </g>
    </g>
  </g>
</svg>
