<svg xmlns="http://www.w3.org/2000/svg" xmlns:xlink="http://www.w3.org/1999/xlink" width="38.546" height="40.5" viewBox="0 0 38.546 40.5">
  <defs>
    <linearGradient id="linear-gradient" y1="0.5" x2="1" y2="0.5" gradientUnits="objectBoundingBox">
      <stop offset="0" stop-color="#6e8bff"/>
      <stop offset="0.149" stop-color="#7288fe"/>
      <stop offset="0.318" stop-color="#8081fe"/>
      <stop offset="0.497" stop-color="#9776fe"/>
      <stop offset="0.684" stop-color="#b766fd"/>
      <stop offset="0.873" stop-color="#df52fd"/>
      <stop offset="1" stop-color="#ff43fd"/>
    </linearGradient>
  </defs>
  <g id="Group_836" data-name="Group 836" transform="translate(-216.635 -2230.439)">
    <g id="Group_835" data-name="Group 835">
      <g id="Group_834" data-name="Group 834">
        <path id="Path_776" data-name="Path 776" d="M251.8,2269.753H239.814a3.383,3.383,0,0,1-3.379-3.379v-11.989a3.383,3.383,0,0,1,3.379-3.378H251.8a3.382,3.382,0,0,1,3.378,3.378v11.989A3.382,3.382,0,0,1,251.8,2269.753Zm-11.989-16.746a1.379,1.379,0,0,0-1.379,1.378v11.989a1.38,1.38,0,0,0,1.379,1.379H251.8a1.379,1.379,0,0,0,1.378-1.379v-11.989a1.379,1.379,0,0,0-1.378-1.378Z" fill="#fff"/>
      </g>
    </g>
  </g>
  <path id="Path_777" data-name="Path 777" d="M232,2251.053H220.014a3.383,3.383,0,0,1-3.379-3.379v-11.989a3.382,3.382,0,0,1,3.379-3.378H232a3.382,3.382,0,0,1,3.379,3.378v11.989A3.383,3.383,0,0,1,232,2251.053Zm-11.989-16.746a1.38,1.38,0,0,0-1.379,1.378v11.989a1.38,1.38,0,0,0,1.379,1.379H232a1.38,1.38,0,0,0,1.379-1.379v-11.989a1.38,1.38,0,0,0-1.379-1.378Zm10.82,32.771a1,1,0,0,0-1-1h-10.3a.589.589,0,0,1-.589-.589v-8.007a1,1,0,0,0-2,0v8.007a2.591,2.591,0,0,0,2.589,2.589h10.3A1,1,0,0,0,230.834,2267.078Zm-2.137,3.565,2.833-2.862a1,1,0,0,0,0-1.407l-2.833-2.861a1,1,0,1,0-1.421,1.407l2.136,2.158-2.136,2.158a1,1,0,0,0,1.421,1.407Zm26.318-26.747v-8.006a2.591,2.591,0,0,0-2.588-2.589h-10.3a1,1,0,1,0,0,2h10.3a.589.589,0,0,1,.588.589v8.006a1,1,0,0,0,2,0Zm-10.339-6.023a1,1,0,0,0,.006-1.414l-2.136-2.158,2.136-2.158a1,1,0,1,0-1.421-1.407l-2.833,2.861a1,1,0,0,0,0,1.407l2.833,2.862a1,1,0,0,0,1.415.007Z" transform="translate(-216.635 -2230.439)" fill="url(#linear-gradient)"/>
</svg>
