<svg xmlns="http://www.w3.org/2000/svg" width="20" height="17">
    <path fill="#FFF" fill-rule="evenodd" d="M19.618 8.512c0-1.31-1.037-2.375-2.312-2.375-.552 0-1.059.2-1.458.533-1.41-.91-3.199-1.459-5.118-1.575l1.001-3.25 2.75.666c.072 1.028.909 1.842 1.929 1.842 1.066 0 1.934-.891 1.934-1.987 0-1.095-.868-1.987-1.934-1.987-.746 0-1.394.437-1.717 1.074L11.497.68c-.267-.066-.538.093-.621.362L9.633 5.076c-2.066.051-4.009.602-5.523 1.565-.393-.315-.886-.504-1.422-.504-1.276 0-2.313 1.065-2.313 2.375 0 .81.397 1.526 1.001 1.955-.025.189-.038.378-.038.57 0 1.637.927 3.161 2.609 4.289 1.613 1.081 3.748 1.676 6.011 1.676s4.397-.595 6.01-1.676c1.683-1.128 2.609-2.652 2.609-4.289 0-.175-.011-.349-.032-.521.645-.422 1.073-1.162 1.073-2.004M16.41 1.459c.487 0 .883.407.883.907s-.396.907-.883.907c-.488 0-.884-.407-.884-.907s.396-.907.884-.907M5.832 9.982c0-.738.603-1.358 1.321-1.358.72 0 1.303.62 1.303 1.358 0 .739-.583 1.338-1.303 1.338-.718 0-1.321-.599-1.321-1.338m7.333 3.935c-.67.687-1.703 1.022-3.159 1.022l-.01-.001-.01.001c-1.455 0-2.488-.335-3.157-1.022-.206-.212-.206-.553 0-.764.205-.21.537-.21.743 0 .462.475 1.252.706 2.414.706h.02c1.163 0 1.953-.231 2.415-.706.206-.211.539-.21.744 0 .205.211.205.553 0 .764m-.306-2.597c-.719 0-1.323-.599-1.323-1.338 0-.739.604-1.358 1.323-1.358s1.303.619 1.303 1.358c0 .739-.584 1.338-1.303 1.338"/>
</svg>
