<svg xmlns="http://www.w3.org/2000/svg" width="17" height="16">
    <path fill="#000" fill-rule="evenodd" d="M16.952 1.171c-.076-.284-.27-.549-.505-.691-.237-.144-.474-.188-.69-.178-.217.012-.422.076-.603.148h-.003c-.185.074-1.061.45-2.394 1.019l-4.774 2.05-6.792 2.918.04-.015s-.233.078-.476.247c-.124.083-.26.197-.378.374-.119.177-.215.45-.179.73.058.477.36.764.577.92.22.16.43.235.43.235h.005l3.158 1.084c.142.464.963 3.214 1.16 3.847.115.38.23.617.371.797.068.092.148.169.246.233.037.022.077.041.118.055.012.008.025.012.04.013l-.033-.008c.01.003.018.011.027.013.024.008.041.01.074.017.501.154.902-.164.902-.164l.023-.017 1.864-1.732 3.126 2.445.071.031c.651.291 1.311.129 1.66-.158.351-.288.487-.656.487-.656l.023-.059 2.415-12.614c.068-.311.086-.601.01-.884zm-1.273.607L13.286 14.26c-.009.018-.027.056-.076.093-.05.043-.09.069-.301-.017l-3.822-2.987-2.309 2.146.485-3.158s5.988-5.69 6.247-5.934c.257-.244.171-.297.171-.297.018-.298-.39-.087-.39-.087L5.417 8.992l-.003-.013L1.64 7.685v-.004l-.01-.003.02-.007.021-.011.019-.007 6.796-2.917 4.773-2.051c1.329-.571 2.31-.987 2.367-1.011.053-.019.027-.019.066-.019-.003.041.005.036-.013.116v.007z"/>
</svg>
