<svg xmlns="http://www.w3.org/2000/svg" width="19" height="15">
    <path fill="#FFF" fill-rule="evenodd" d="M18.626 1.768c-.675.299-1.402.501-2.164.591.778-.464 1.375-1.2 1.657-2.077-.728.43-1.535.743-2.393.912-.688-.73-1.667-1.186-2.751-1.186-2.081 0-3.769 1.681-3.769 3.754 0 .294.034.581.098.856C6.172 4.462 3.395 2.966 1.536.695c-.324.555-.51 1.2-.51 1.887 0 1.303.666 2.452 1.676 3.126-.617-.02-1.198-.189-1.706-.47l-.001.048c0 1.819 1.299 3.336 3.023 3.681-.316.086-.649.131-.993.131-.242 0-.478-.023-.709-.067.48 1.492 1.872 2.578 3.521 2.608-1.29 1.007-2.915 1.607-4.681 1.607-.304 0-.603-.018-.898-.052 1.667 1.065 3.648 1.686 5.777 1.686 6.931 0 10.722-5.721 10.722-10.682 0-.163-.004-.325-.011-.486.736-.529 1.375-1.19 1.88-1.944"/>
</svg>
