<svg xmlns="http://www.w3.org/2000/svg" width="20" height="14">
    <path fill="#FFF" fill-rule="evenodd" d="M19.426 3.017s-.188-1.372-.765-1.976c-.732-.793-1.552-.796-1.928-.843-2.692-.201-6.732-.201-6.732-.201h-.008s-4.04 0-6.733.201c-.376.047-1.195.05-1.928.843-.577.604-.764 1.976-.764 1.976S.375 4.628.375 6.238v1.511c0 1.61.193 3.22.193 3.22s.187 1.372.764 1.976c.733.793 1.694.768 2.122.851 1.54.153 6.543.2 6.543.2s4.044-.006 6.736-.207c.376-.047 1.196-.051 1.928-.844.577-.604.765-1.976.765-1.976s.193-1.61.193-3.22V6.238c0-1.61-.193-3.221-.193-3.221M8.01 9.578l-.001-5.593 5.2 2.806L8.01 9.578z"/>
</svg>
